<svg width="95" height="95" viewBox="0 0 95 95" fill="none" xmlns="http://www.w3.org/2000/svg">
<path d="M94.5 91.7702H91.4677V94.8025H94.5V91.7702Z" fill="#CDA274"/>
<path d="M73.2742 15.9638V3.83475H49.0161V0.80249H45.9839V3.83475H21.7258V36.5945L12.629 31.343V31.1251H12.2538L11.9259 30.9356L11.816 31.1251H0.5V52.3509C0.5 55.6958 3.21956 58.4154 6.56452 58.4154H21.7258V64.4799H35.0374L29.5794 91.7702H0.5V94.8025H88.4355V91.7702H65.4206L59.9626 64.4799H73.2742V40.2218H85.4032V37.1896H82.7955L85.5397 26.2166L79.9186 19.1912C85.6098 20.1881 89.9516 25.1534 89.9516 31.1251H92.9839C92.9839 26.1635 90.577 21.763 86.8796 18.996H94.5V15.9638H73.2742ZM9.59677 52.3509C9.59677 54.0224 8.23605 55.3831 6.56452 55.3831C4.89298 55.3831 3.53226 54.0224 3.53226 52.3509V34.1573H9.59677V52.3509ZM20.8029 40.6293L23.8351 45.8789L14.0371 51.5379L20.0998 41.0349L20.8029 40.6293ZM12.629 35.7834L13.0365 35.0765L18.2861 38.1087L12.629 47.9105V35.7834ZM13.4383 55.3831L23.9431 49.3186H24.7581V55.3831H13.4383ZM45.9839 91.7702H32.6723L38.1303 64.4799H45.9839V91.7702ZM62.3277 91.7702H49.0161V64.4799H56.8697L62.3277 91.7702ZM70.1055 26.2166L72.8497 37.1896H70.2419V61.4477H24.7581V58.4154H27.7903V47.0975L27.9779 46.9876L27.7903 46.6635V46.2864H27.5724L24.7581 41.412V6.86701H70.2419V15.9638H61.1452V18.996H68.7656C65.0681 21.763 62.6613 26.1635 62.6613 31.1251H65.6936C65.6936 25.1534 70.0354 20.1881 75.7265 19.1893L70.1055 26.2166ZM82.2345 26.9387L79.6723 37.1896H75.9729L73.4106 26.9368L76.3065 23.317V29.6089H79.3387V23.3189L82.2345 26.9387Z" fill="#CDA274"/>
<path d="M33.8548 12.9315H30.8226V15.9637H33.8548V12.9315Z" fill="#CDA274"/>
<path d="M64.1774 52.3508H61.1451V55.3831H64.1774V52.3508Z" fill="#CDA274"/>
<path d="M61.1452 34.1573C61.1452 26.6335 55.0238 20.5121 47.5 20.5121C45.0477 20.5121 42.7489 21.1716 40.757 22.3087L36.5972 16.5891L34.1448 18.3725L38.3104 24.0996C35.5795 26.5956 33.8549 30.1736 33.8549 34.1573C33.8549 41.6811 39.9762 47.8024 47.5 47.8024C49.9524 47.8024 52.2512 47.1429 54.243 46.0058L58.4029 51.7254L60.8552 49.9421L56.6897 44.2149C59.4206 41.719 61.1452 38.1409 61.1452 34.1573ZM47.5 44.7702C41.6497 44.7702 36.8871 40.0076 36.8871 34.1573C36.8871 31.1819 38.1228 28.4907 40.1032 26.5633L52.4483 43.5402C50.9682 44.321 49.2872 44.7702 47.5 44.7702ZM42.5518 24.7762C44.0319 23.9935 45.7129 23.5444 47.5 23.5444C53.3504 23.5444 58.1129 28.3069 58.1129 34.1573C58.1129 37.1327 56.8773 39.8238 54.8968 41.7512L42.5518 24.7762Z" fill="#CDA274"/>
</svg>
