<svg width="94" height="95" viewBox="0 0 94 95" fill="none" xmlns="http://www.w3.org/2000/svg">
<path d="M92 44.6092V40.9639L48.9216 9.77052H45.0784L35.3871 16.7872V11.2221H38.2903V2.51245H9.25806V11.2221H12.1613V33.606L2 40.9639V44.6092H9.25806V66.3834H2V86.706H9.25806V92.5125H84.7419V62.0286C88.7448 62.0286 92 58.7733 92 54.7705C92 50.7677 88.7448 47.5125 84.7419 47.5125V44.6092H92ZM12.1613 5.41568H35.3871V8.3189H12.1613V5.41568ZM32.4839 11.2221V18.8903L15.0645 31.5048V11.2221H32.4839ZM7.80645 77.9963V83.8028H4.90323V69.2866H71.6774V83.8028H68.7742V77.9963H65.871V83.8028H62.9677V77.9963H60.0645V83.8028H57.1613V77.9963H54.2581V83.8028H51.3548V77.9963H48.4516V83.8028H45.5484V77.9963H42.6452V83.8028H39.7419V77.9963H36.8387V83.8028H33.9355V77.9963H31.0323V83.8028H28.129V77.9963H25.2258V83.8028H22.3226V77.9963H19.4194V83.8028H16.5161V77.9963H13.6129V83.8028H10.7097V77.9963H7.80645ZM81.8387 89.6092H12.1613V86.706H74.5807V66.3834H12.1613V44.6092H81.8387V47.5125H29.1415L18.2544 54.7705L29.1415 62.0286H81.8387V89.6092ZM78.9355 50.4157V59.1254H76.0323V50.4157H78.9355ZM32.4839 53.3189V50.4157H73.129V53.3189H32.4839ZM73.129 56.2221V59.1254H32.4839V56.2221H73.129ZM29.5806 50.7096V58.8332L23.4875 54.7705L29.5806 50.7096ZM89.0968 54.7705C89.0968 57.1711 87.1425 59.1254 84.7419 59.1254H81.8387V50.4157H84.7419C87.1425 50.4157 89.0968 52.3699 89.0968 54.7705ZM5.92661 41.706L46.0183 12.6737H47.9817L88.0734 41.706H5.92661Z" fill="#CDA274"/>
<path d="M47 17.0281C40.5966 17.0281 35.3871 22.2376 35.3871 28.641C35.3871 35.0444 40.5966 40.2539 47 40.2539C53.4034 40.2539 58.6129 35.0444 58.6129 28.641C58.6129 22.2376 53.4034 17.0281 47 17.0281ZM47 37.3507C42.197 37.3507 38.2903 33.444 38.2903 28.641C38.2903 23.838 42.197 19.9313 47 19.9313C51.803 19.9313 55.7097 23.838 55.7097 28.641C55.7097 33.444 51.803 37.3507 47 37.3507Z" fill="#CDA274"/>
</svg>
