<svg width="94" height="95" viewBox="0 0 94 95" fill="none" xmlns="http://www.w3.org/2000/svg">
<path d="M64.2341 83.4408H61.1007V75.6075V16.0741C61.1007 15.7608 60.944 15.2908 60.7874 15.1341L56.2441 1.50414C56.0874 0.877471 55.4607 0.407471 54.834 0.407471C54.2074 0.407471 53.5807 0.877471 53.424 1.50414L48.8807 15.1341C48.7241 15.4475 48.5674 15.7608 48.5674 16.0741V75.6075V92.8408C48.5674 93.7808 49.194 94.4075 50.134 94.4075H59.534C60.474 94.4075 61.1007 93.7808 61.1007 92.8408V86.5741H65.8007C66.7407 86.5741 67.3674 85.9475 67.3674 85.0075V38.0075H64.2341V83.4408ZM51.7007 17.6408H57.9674V74.0408H51.7007V17.6408ZM54.834 6.98747L57.3407 14.5075H52.3274L54.834 6.98747ZM57.9674 91.2741H51.7007V77.1741H57.9674V91.2741Z" fill="#CDA274"/>
<path d="M92.4328 0.407471H75.1995C74.2595 0.407471 73.6328 1.03414 73.6328 1.97414V92.8408C73.6328 93.7808 74.2595 94.4075 75.1995 94.4075H92.4328C93.3728 94.4075 93.9995 93.7808 93.9995 92.8408V1.97414C93.9995 1.03414 93.3728 0.407471 92.4328 0.407471ZM90.8661 91.2741H76.7661V80.3075H84.5995V77.1741H76.7661V64.6408H84.5995V61.5075H76.7661V48.9741H84.5995V45.8408H76.7661V33.3075H84.5995V30.1741H76.7661V17.6408H84.5995V14.5075H76.7661V3.5408H90.8661V91.2741Z" fill="#CDA274"/>
<path d="M21.9333 16.0742C9.87 16.0742 0 25.9442 0 38.0075C0 46.4675 4.85667 54.1442 12.5333 57.7475V69.3409V77.1742C12.5333 78.1142 13.16 78.7409 14.1 78.7409H20.3667V83.4409H23.5V78.7409H29.7667C30.7067 78.7409 31.3333 78.1142 31.3333 77.1742V69.3409V57.7475C39.01 54.1442 43.8667 46.4675 43.8667 38.0075C43.8667 25.9442 33.9967 16.0742 21.9333 16.0742ZM28.2 75.6075H15.6667V70.9075H28.2V75.6075ZM29.14 55.3975C28.5133 55.5542 28.2 56.1809 28.2 56.8075V67.7742H15.6667V64.6409H23.5V61.5075H15.6667V56.8075C15.6667 56.1809 15.3533 55.5542 14.7267 55.3975C7.67667 52.4209 3.13333 45.5275 3.13333 38.0075C3.13333 27.6676 11.5933 19.2076 21.9333 19.2076C32.2733 19.2076 40.7333 27.6676 40.7333 38.0075C40.7333 45.5275 36.19 52.4209 29.14 55.3975Z" fill="#CDA274"/>
<path d="M25.5367 29.0774L21.9334 32.6807L18.3301 29.0774L16.1367 31.2707L20.3667 35.5007V52.1074H23.5001V35.5007L27.7301 31.2707L25.5367 29.0774Z" fill="#CDA274"/>
</svg>
