<svg width="94" height="95" viewBox="0 0 94 95" fill="none" xmlns="http://www.w3.org/2000/svg">
<path d="M94 21.1799V0.617432H61.9543V32.9299H55.5452V50.5549H27.7736V68.1799H0V94.6174H86.5233V32.9299H65.1589V21.1799H94ZM65.1589 3.55493H90.7954V18.2424H65.1589V3.55493ZM30.9782 53.4924H55.5472V58.3889H30.9782V53.4924ZM3.20457 71.1174H27.7736V76.0139H3.20457V71.1174ZM83.3188 91.6799H3.20457V78.9514H27.7736V85.3166H30.9782V61.3264H55.5472V71.6076H58.7517V43.7014H83.3188V91.6799ZM83.3188 35.8674V40.7639H58.7497V35.8674H83.3188Z" fill="#CDA274"/>
<path d="M85.9886 6.49243H78.5119V9.42993H85.9886V6.49243Z" fill="#CDA274"/>
<path d="M85.9884 12.3674H69.9656V15.3049H85.9884V12.3674Z" fill="#CDA274"/>
<path d="M34.7154 11.3889V14.3264H43.6662L3.67319 50.9845L5.94043 53.0628L45.9314 16.4028V22.6487H49.136V11.3889H34.7154Z" fill="#CDA274"/>
<path d="M10.1463 81.8889H5.87421V84.8264H10.1463V81.8889Z" fill="#CDA274"/>
<path d="M25.1018 81.8889H20.8297V84.8264H25.1018V81.8889Z" fill="#CDA274"/>
<path d="M37.9201 64.2639H33.648V67.2014H37.9201V64.2639Z" fill="#CDA274"/>
<path d="M52.8753 64.2639H48.6033V67.2014H52.8753V64.2639Z" fill="#CDA274"/>
<path d="M65.6937 46.6389H61.4216V49.5764H65.6937V46.6389Z" fill="#CDA274"/>
<path d="M80.6468 46.6389H76.3747V49.5764H80.6468V46.6389Z" fill="#CDA274"/>
</svg>
