<svg width="176" height="34" viewBox="0 0 176 34" fill="none" xmlns="http://www.w3.org/2000/svg">
<path d="M44.8809 31.0001V30.6001L45.6809 30.2801C46.2142 30.0934 46.5609 29.8401 46.7209 29.5201C46.9075 29.2001 47.0009 28.7734 47.0009 28.2401V7.3601C47.0009 6.82677 46.9209 6.4001 46.7609 6.0801C46.6009 5.7601 46.2409 5.50676 45.6809 5.3201L44.8809 5.0001V4.6001H55.1609V5.0001L54.3609 5.3201C53.8275 5.50676 53.4675 5.7601 53.2809 6.0801C53.1209 6.4001 53.0409 6.82677 53.0409 7.3601V28.2401C53.0409 28.7734 53.1209 29.2001 53.2809 29.5201C53.4675 29.8134 53.8275 30.0668 54.3609 30.2801L55.1609 30.6001V31.0001H44.8809Z" fill="#292F36"/>
<path d="M56.8321 31.0001V30.6001L57.3921 30.4401C58.3254 30.1734 58.7921 29.5201 58.7921 28.4801V15.9601C58.7921 15.3734 58.6988 14.9468 58.5121 14.6801C58.3254 14.3868 57.9654 14.1868 57.4321 14.0801L56.8321 13.9201V13.5201L63.6721 11.2001L64.0721 11.6001L64.3921 14.0001C65.3254 13.1734 66.3788 12.4934 67.5521 11.9601C68.7254 11.4268 69.8854 11.1601 71.0321 11.1601C72.7921 11.1601 74.1388 11.6401 75.0721 12.6001C76.0321 13.5601 76.5121 15.0268 76.5121 17.0001V28.5201C76.5121 29.5601 77.0188 30.2134 78.0321 30.4801L78.3921 30.6001V31.0001H68.9521V30.6001L69.4721 30.4401C70.4054 30.1468 70.8721 29.4934 70.8721 28.4801V15.7201C70.8721 14.0134 70.0188 13.1601 68.3121 13.1601C67.1388 13.1601 65.8588 13.7468 64.4721 14.9201V28.5201C64.4721 29.5601 64.9388 30.2134 65.8721 30.4801L66.2321 30.6001V31.0001H56.8321Z" fill="#292F36"/>
<path d="M87.3618 31.6001C85.6551 31.6001 84.3218 31.1734 83.3618 30.3201C82.4285 29.4668 81.9618 28.1068 81.9618 26.2401V12.5601H79.2018V12.1601L80.1618 12.0001C80.9885 11.8134 81.6951 11.5468 82.2818 11.2001C82.8951 10.8534 83.4951 10.3868 84.0818 9.8001L87.3618 6.1601H87.7618L87.6418 11.7601H92.1218V12.5601H87.6018V26.9601C87.6018 27.8934 87.8018 28.6001 88.2018 29.0801C88.6285 29.5601 89.1618 29.8001 89.8018 29.8001C90.3618 29.8001 90.8551 29.6668 91.2818 29.4001C91.7085 29.1068 92.1351 28.7201 92.5618 28.2401L92.9618 28.6401C92.4285 29.5468 91.6951 30.2668 90.7618 30.8001C89.8285 31.3334 88.6951 31.6001 87.3618 31.6001Z" fill="#292F36"/>
<path d="M104.138 11.1601C105.871 11.1601 107.351 11.5201 108.578 12.2401C109.804 12.9334 110.738 13.8934 111.378 15.1201C112.044 16.3201 112.378 17.6934 112.378 19.2401C112.378 19.5334 112.364 19.8401 112.338 20.1601C112.311 20.4534 112.258 20.7201 112.178 20.9601H100.258C100.284 23.8401 100.791 25.9201 101.778 27.2001C102.791 28.4534 104.284 29.0801 106.258 29.0801C107.591 29.0801 108.671 28.8668 109.498 28.4401C110.324 28.0134 111.098 27.3868 111.818 26.5601L112.218 26.9201C111.391 28.3868 110.284 29.5334 108.898 30.3601C107.538 31.1868 105.898 31.6001 103.978 31.6001C102.084 31.6001 100.404 31.2001 98.9377 30.4001C97.4711 29.5734 96.3244 28.4001 95.4977 26.8801C94.6711 25.3601 94.2577 23.5468 94.2577 21.4401C94.2577 19.2534 94.7377 17.4001 95.6977 15.8801C96.6577 14.3334 97.8844 13.1601 99.3777 12.3601C100.898 11.5601 102.484 11.1601 104.138 11.1601ZM104.018 11.9601C103.244 11.9601 102.578 12.2001 102.018 12.6801C101.484 13.1334 101.058 13.9601 100.738 15.1601C100.444 16.3334 100.284 18.0001 100.258 20.1601H107.098C107.364 17.2534 107.258 15.1601 106.778 13.8801C106.298 12.6001 105.378 11.9601 104.018 11.9601Z" fill="#292F36"/>
<path d="M114.371 31.0001V30.6001L114.971 30.4401C115.505 30.2801 115.865 30.0401 116.051 29.7201C116.265 29.4001 116.371 28.9868 116.371 28.4801V15.9601C116.371 15.3734 116.265 14.9468 116.051 14.6801C115.865 14.3868 115.505 14.1868 114.971 14.0801L114.371 13.9201V13.5201L121.251 11.2001L121.651 11.6001L122.011 15.0401V15.3601C122.385 14.6134 122.865 13.9334 123.451 13.3201C124.065 12.6801 124.731 12.1601 125.451 11.7601C126.198 11.3601 126.931 11.1601 127.651 11.1601C128.665 11.1601 129.438 11.4401 129.971 12.0001C130.505 12.5601 130.771 13.2668 130.771 14.1201C130.771 15.0268 130.505 15.7334 129.971 16.2401C129.465 16.7201 128.851 16.9601 128.131 16.9601C127.011 16.9601 126.025 16.4001 125.171 15.2801L125.091 15.2001C124.825 14.8268 124.518 14.6268 124.171 14.6001C123.825 14.5468 123.505 14.7068 123.211 15.0801C122.945 15.3201 122.718 15.6134 122.531 15.9601C122.371 16.2801 122.211 16.6534 122.051 17.0801V28.2401C122.051 29.3068 122.518 29.9734 123.451 30.2401L124.731 30.6001V31.0001H114.371Z" fill="#292F36"/>
<path d="M132.027 31.0001V30.6001L132.587 30.4401C133.521 30.1734 133.987 29.5201 133.987 28.4801V15.9601C133.987 15.3734 133.894 14.9468 133.707 14.6801C133.521 14.3868 133.161 14.1868 132.627 14.0801L132.027 13.9201V13.5201L138.867 11.2001L139.267 11.6001L139.587 14.0001C140.521 13.1734 141.574 12.4934 142.747 11.9601C143.921 11.4268 145.081 11.1601 146.227 11.1601C147.987 11.1601 149.334 11.6401 150.267 12.6001C151.227 13.5601 151.707 15.0268 151.707 17.0001V28.5201C151.707 29.5601 152.214 30.2134 153.227 30.4801L153.587 30.6001V31.0001H144.147V30.6001L144.667 30.4401C145.601 30.1468 146.067 29.4934 146.067 28.4801V15.7201C146.067 14.0134 145.214 13.1601 143.507 13.1601C142.334 13.1601 141.054 13.7468 139.667 14.9201V28.5201C139.667 29.5601 140.134 30.2134 141.067 30.4801L141.427 30.6001V31.0001H132.027Z" fill="#292F36"/>
<path d="M165.272 31.6001C163.246 31.6001 161.486 31.1868 159.992 30.3601C158.499 29.5068 157.339 28.3068 156.512 26.7601C155.712 25.2134 155.312 23.4001 155.312 21.3201C155.312 19.2401 155.739 17.4401 156.592 15.9201C157.472 14.4001 158.659 13.2268 160.152 12.4001C161.672 11.5734 163.379 11.1601 165.272 11.1601C167.166 11.1601 168.859 11.5734 170.352 12.4001C171.846 13.2001 173.019 14.3601 173.872 15.8801C174.752 17.4001 175.192 19.2134 175.192 21.3201C175.192 23.4268 174.779 25.2534 173.952 26.8001C173.152 28.3201 172.006 29.5068 170.512 30.3601C169.046 31.1868 167.299 31.6001 165.272 31.6001ZM165.272 30.8001C166.206 30.8001 166.952 30.5334 167.512 30.0001C168.072 29.4668 168.472 28.5201 168.712 27.1601C168.979 25.8001 169.112 23.8801 169.112 21.4001C169.112 18.8934 168.979 16.9601 168.712 15.6001C168.472 14.2401 168.072 13.2934 167.512 12.7601C166.952 12.2268 166.206 11.9601 165.272 11.9601C164.339 11.9601 163.579 12.2268 162.992 12.7601C162.432 13.2934 162.019 14.2401 161.752 15.6001C161.512 16.9601 161.392 18.8934 161.392 21.4001C161.392 23.8801 161.512 25.8001 161.752 27.1601C162.019 28.5201 162.432 29.4668 162.992 30.0001C163.579 30.5334 164.339 30.8001 165.272 30.8001Z" fill="#292F36"/>
<path d="M0 34.0003H13.4588V24.499C13.4588 22.4853 15.0898 20.8543 17.1035 20.8543C19.1172 20.8543 20.7482 22.4853 20.7482 24.499V34.0003H33.9975V0C15.2211 0 0 15.2211 0 34.0003Z" fill="#CDA274"/>
</svg>
